<svg xmlns="http://www.w3.org/2000/svg" viewBox="0 0 258.48 250.89"><defs><style>.cls-1{fill:#e99fb4;}.cls-2{fill:#efd5dd;}</style></defs><g id="Layer_2" data-name="Layer 2"><g id="Layer_4" data-name="Layer 4"><path class="cls-1" d="M142.83,0,129.24,23.53,115.65,0c-14.44,10.34-27,35.12-27,59.27,0,31.6,8.4,77.46,40.59,77.46s40.59-45.86,40.59-77.46C169.83,35.12,157.27,10.34,142.83,0Z"/><path class="cls-1" d="M258.48,90.08,231.39,88l15.38-22.4c-15.56-8.58-43.33-9.24-65.12,1.17-28.51,13.61-66.28,41-52.41,70s58.88,16.87,87.39,3.26C238.42,129.58,255.37,107.57,258.48,90.08Z"/><path class="cls-1" d="M0,90.08,27.09,88,11.71,65.56C27.27,57,55,56.32,76.83,66.73c28.51,13.61,66.28,41,52.41,70S70.36,153.6,41.85,140C20.06,129.58,3.11,107.57,0,90.08Z"/><path class="cls-1" d="M52.64,250.8,57.15,224l-25.46,9.49c-4.55-17.17,1.55-44.27,16.93-62.89,20.12-24.36,55.8-54.37,80.62-33.87s2.09,61.21-18,85.57C95.83,240.92,70.37,252,52.64,250.8Z"/><path class="cls-1" d="M205.84,250.8,201.33,224l25.46,9.49c4.55-17.17-1.55-44.27-16.93-62.89-20.12-24.36-55.8-54.37-80.62-33.87s-2.09,61.21,18,85.57C162.65,240.92,188.11,252,205.84,250.8Z"/><circle class="cls-2" cx="129.34" cy="137.5" r="15.32"/><circle class="cls-2" cx="129.34" cy="115.83" r="15.32"/><circle class="cls-2" cx="150.14" cy="136.63" r="15.32"/><circle class="cls-2" cx="128.47" cy="158.29" r="15.32"/><circle class="cls-2" cx="107.68" cy="137.5" r="15.32"/><path class="cls-2" d="M113.16,93.92a4.3,4.3,0,1,0-2.48,8l5,18.57L99.5,104.18a5.5,5.5,0,1,0-5.09,3.42,5.41,5.41,0,0,0,2.32-.53l15.67,15.8-17.85-4.8a4.3,4.3,0,1,0-2.15,4.09,4.43,4.43,0,0,0,1.26-1.09l20.93,5.64.34-1.28,1.22,1.23,2.84-2.82-1.39-1.4,1.72-.46L113.68,101a4.12,4.12,0,0,0,1.09-1.25A4.29,4.29,0,0,0,113.16,93.92Z"/><path class="cls-2" d="M113.16,179.54a4.3,4.3,0,1,1-4.26-7.48,4.14,4.14,0,0,1,1.78-.54l5-18.57L99.5,169.28a5.5,5.5,0,1,1-5.09-3.42,5.41,5.41,0,0,1,2.32.53l15.67-15.81-17.85,4.81a4.3,4.3,0,1,1-2.15-4.09,4.4,4.4,0,0,1,1.26,1.08l20.93-5.63.34,1.27,1.22-1.22,2.84,2.81L117.6,151l1.72.47-5.64,20.93a4.3,4.3,0,0,1-.52,7.13Z"/><path class="cls-2" d="M172.05,120.65a4.3,4.3,0,1,0-8-2.48l-18.57,5L161.79,107a5.58,5.58,0,1,0-2.89-2.77l-15.81,15.66L147.9,102a4.3,4.3,0,1,0-4.09-2.15,4.12,4.12,0,0,0,1.09,1.25l-5.64,20.94,1.27.34-1.22,1.21,2.82,2.84,1.4-1.38.46,1.72,20.93-5.64a4.43,4.43,0,0,0,1.26,1.09A4.29,4.29,0,0,0,172.05,120.65Z"/><path class="cls-2" d="M172.05,152.81a4.3,4.3,0,1,1-8,2.48l-18.57-5,16.33,16.18a5.56,5.56,0,1,1-2.89,2.76l-15.81-15.66,4.81,17.85a4.14,4.14,0,0,1,1.78.54,4.31,4.31,0,1,1-4.78.35l-5.64-20.93,1.27-.34-1.22-1.22,2.82-2.84,1.4,1.39.46-1.72,20.93,5.63a4.4,4.4,0,0,1,1.26-1.08A4.29,4.29,0,0,1,172.05,152.81Z"/></g></g></svg>